# Wavefront Obj file
# 
# verts: 8 uv-s: 12
mtllib WallObstacleUW.mtl

g Box001
#pivot -0.945164 -0.520851 -0.000000

v -60.000282 -59.575970 -0.000010
v 58.109955 -59.575970 -0.000010
v -60.000282 58.534267 0.000010
v 58.109955 58.534267 0.000010
v -60.000282 -59.575970 10.443411
v 58.109955 -59.575970 10.443411
v -60.000282 58.534267 10.443430
v 58.109955 58.534267 10.443430
# 8 positions

vt 0.083631 0.083632
vt 0.916368 0.083632
vt 0.916368 0.916368
vt 0.083632 0.916369
vt 0.010000 0.916368
vt 0.010000 0.083632
vt 0.916368 0.990000
vt 0.083632 0.990000
vt 0.990000 0.083632
vt 0.990000 0.916369
vt 0.083631 0.010000
vt 0.916368 0.010000
# 12 texture coordinates

vn 0.000000 0.000000 -1.000000
vn 0.000000 0.000000 -1.000000
vn 0.000000 0.000000 -1.000000
vn 0.000000 0.000000 -1.000000
vn 0.000000 -1.000000 0.000000
vn 0.000000 -1.000000 0.000000
vn 0.000000 -1.000000 0.000000
vn 0.000000 -1.000000 0.000000
vn 1.000000 0.000000 0.000000
vn 1.000000 0.000000 0.000000
vn 1.000000 0.000000 0.000000
vn 1.000000 0.000000 0.000000
vn 0.000000 1.000000 0.000000
vn 0.000000 1.000000 0.000000
vn 0.000000 1.000000 0.000000
vn 0.000000 1.000000 0.000000
vn -1.000000 0.000000 0.000000
vn -1.000000 0.000000 0.000000
vn -1.000000 0.000000 0.000000
vn -1.000000 0.000000 0.000000
# 20 normals

usemtl default
s 1
f 1/1/1 3/2/2 4/3/3 2/4/4
s 2
f 1/1/5 2/4/6 6/5/7 5/6/8
s 3
f 2/4/9 4/3/10 8/7/11 6/8/12
s 4
f 4/3/13 3/2/14 7/9/15 8/10/16
s 5
f 3/2/17 1/1/18 5/11/19 7/12/20

# 5 faces
